<mxfile host="app.diagrams.net" modified="2022-06-06T07:44:28.188Z" agent="5.0 (Macintosh; Intel Mac OS X 10_15_7) AppleWebKit/605.1.15 (KHTML, like Gecko) Version/15.5 Safari/605.1.15" etag="E5GmUhbV7DqiD4dx10wd" version="19.0.0" type="github">
  <diagram id="O-VQobuVRkO8Mm5WXcLA" name="Page-1">
    <mxGraphModel dx="1054" dy="1079" grid="0" gridSize="10" guides="1" tooltips="1" connect="1" arrows="1" fold="1" page="1" pageScale="1" pageWidth="827" pageHeight="1169" math="0" shadow="0">
      <root>
        <mxCell id="0" />
        <mxCell id="1" parent="0" />
        <mxCell id="yKwu13VNJtmk_11D7rHj-1" value="&lt;b&gt;&lt;font style=&quot;font-size: 20px;&quot; color=&quot;#009999&quot;&gt;智能水肥一体化云平台&lt;/font&gt;&lt;/b&gt;" style="rounded=1;whiteSpace=wrap;html=1;fillColor=#dae8fc;strokeColor=#6c8ebf;" vertex="1" parent="1">
          <mxGeometry x="211" y="199" width="406" height="96" as="geometry" />
        </mxCell>
        <mxCell id="yKwu13VNJtmk_11D7rHj-2" value="&lt;font color=&quot;#00cc66&quot; size=&quot;1&quot;&gt;&lt;b style=&quot;font-size: 16px;&quot;&gt;传感器模块&lt;/b&gt;&lt;/font&gt;" style="rounded=1;whiteSpace=wrap;html=1;fillColor=#ffe6cc;strokeColor=#d79b00;" vertex="1" parent="1">
          <mxGeometry x="130" y="410" width="120" height="60" as="geometry" />
        </mxCell>
        <mxCell id="yKwu13VNJtmk_11D7rHj-3" value="&lt;font color=&quot;#00cc66&quot; size=&quot;1&quot;&gt;&lt;b style=&quot;font-size: 16px;&quot;&gt;水肥混合模块&lt;/b&gt;&lt;/font&gt;" style="rounded=1;whiteSpace=wrap;html=1;fillColor=#fff2cc;strokeColor=#d6b656;" vertex="1" parent="1">
          <mxGeometry x="354" y="410" width="120" height="60" as="geometry" />
        </mxCell>
        <mxCell id="yKwu13VNJtmk_11D7rHj-4" value="&lt;font color=&quot;#00cc66&quot; style=&quot;font-size: 16px;&quot;&gt;&lt;b&gt;滴灌模块&lt;/b&gt;&lt;/font&gt;" style="rounded=1;whiteSpace=wrap;html=1;fillColor=#d5e8d4;strokeColor=#82b366;" vertex="1" parent="1">
          <mxGeometry x="580" y="410" width="120" height="60" as="geometry" />
        </mxCell>
        <mxCell id="yKwu13VNJtmk_11D7rHj-5" value="" style="endArrow=classic;html=1;rounded=1;exitX=0.5;exitY=0;exitDx=0;exitDy=0;entryX=0.25;entryY=1;entryDx=0;entryDy=0;strokeColor=#d6b656;strokeWidth=4;fillColor=#fff2cc;" edge="1" parent="1" source="yKwu13VNJtmk_11D7rHj-2" target="yKwu13VNJtmk_11D7rHj-1">
          <mxGeometry width="50" height="50" relative="1" as="geometry">
            <mxPoint x="390" y="570" as="sourcePoint" />
            <mxPoint x="440" y="520" as="targetPoint" />
            <Array as="points">
              <mxPoint x="190" y="360" />
              <mxPoint x="310" y="358" />
            </Array>
          </mxGeometry>
        </mxCell>
        <mxCell id="yKwu13VNJtmk_11D7rHj-6" value="" style="endArrow=classic;html=1;rounded=1;exitX=0.75;exitY=1;exitDx=0;exitDy=0;entryX=0.5;entryY=0;entryDx=0;entryDy=0;strokeColor=#d6b656;strokeWidth=4;fillColor=#fff2cc;" edge="1" parent="1" source="yKwu13VNJtmk_11D7rHj-1" target="yKwu13VNJtmk_11D7rHj-4">
          <mxGeometry width="50" height="50" relative="1" as="geometry">
            <mxPoint x="490" y="390" as="sourcePoint" />
            <mxPoint x="669" y="240" as="targetPoint" />
            <Array as="points">
              <mxPoint x="513" y="360" />
              <mxPoint x="640" y="360" />
            </Array>
          </mxGeometry>
        </mxCell>
        <mxCell id="yKwu13VNJtmk_11D7rHj-8" value="" style="endArrow=classic;html=1;rounded=1;exitX=0.5;exitY=1;exitDx=0;exitDy=0;entryX=0.5;entryY=0;entryDx=0;entryDy=0;strokeColor=#d79b00;strokeWidth=4;fillColor=#ffe6cc;" edge="1" parent="1" source="yKwu13VNJtmk_11D7rHj-1" target="yKwu13VNJtmk_11D7rHj-3">
          <mxGeometry width="50" height="50" relative="1" as="geometry">
            <mxPoint x="414" y="270" as="sourcePoint" />
            <mxPoint x="595" y="420" as="targetPoint" />
            <Array as="points" />
          </mxGeometry>
        </mxCell>
        <mxCell id="yKwu13VNJtmk_11D7rHj-9" value="" style="endArrow=classic;html=1;rounded=1;exitX=1;exitY=0.5;exitDx=0;exitDy=0;entryX=0;entryY=0.5;entryDx=0;entryDy=0;strokeColor=#d6b656;strokeWidth=4;fillColor=#fff2cc;" edge="1" parent="1" source="yKwu13VNJtmk_11D7rHj-3" target="yKwu13VNJtmk_11D7rHj-4">
          <mxGeometry width="50" height="50" relative="1" as="geometry">
            <mxPoint x="500" y="510" as="sourcePoint" />
            <mxPoint x="500" y="660" as="targetPoint" />
            <Array as="points" />
          </mxGeometry>
        </mxCell>
        <mxCell id="yKwu13VNJtmk_11D7rHj-11" value="" style="shape=image;verticalLabelPosition=bottom;labelBackgroundColor=default;verticalAlign=top;aspect=fixed;imageAspect=0;image=data:image/png,iVBORw0KGgoAAAANSUhEUgAAAMgAAADIEAYAAAD9yHLdAAAABGdBTUEAALGPC/xhBQAAAAFzUkdCAK7OHOkAAAAgY0hSTQAAeiYAAICEAAD6AAAAgOgAAHUwAADqYAAAOpgAABdwnLpRPAAAAAZiS0dEAAAAAAAA+UO7fwAAAAlwSFlzAAAASAAAAEgARslrPgAAMj1JREFUeNrt3WdcFGf3N/BzZguKFQUpApZYWKwRRaMmloCxoBELIrZAVMSuATs27DEWxB5RUYxii70bjb1gFGUBxQ6sFWygbJnzvNDl+ee+k1tQYBY435d+nJ3fjMjZmeu6zgXAGGOMMcYYY4wxxhhjjDHGGGOMMcYYY4wxxhhjjDHGGGOMMcYYY4wxxhhjjDHGGGOMMcYYY4wxxhhjjDHGGGOMMcYYY4wxxhhjjDHGGGOMMcYYY4wxxhhjjDHGGGOMMcYYY4wxxhhjjDHGGGOMMcYYK5JQ6gCMfR4SW5BcbuMLkLzEwkK4px0pu1quHNYWROFPCwtogQ7Qr1w5+ktcAjtKlaJwuENvy5QxHo0HsRq2l8mIYAkNK136Y2fDrZCEZQwGCqcB1PTVq6w/V8Il3KDXo45csO/r17RR1hDupKbSLXGvmJqWJg40VCLz1NQSVYuRrmpa2p27KNy5+/Kl1HePsc/BBYRJymFuRo2afnZ2YjHlI4CaNSFKnIxjHRyoLvrBhcqVoR5Y4jN7e9BTf5I5OEAiXoQOjo7gSFNwsb09zIcOcPTjv/hNTkNIh66iCO1hJsx48gQewhRYk5QEgBEQ9vAh1CNL2v3gAbTFeJjz4AE6iWOF4w8fGkoKDfD7e/cM9eQ3qEFc3NOtKKi93ryR+nJY0cQFhOWqSkRUj8qW1fUyNNcObtiQ5FQT7GrVQn9aAZ7OzuADl+BtrVq0CxLI0tkZ20NvbG9hIXXuAscOtKAiAhf8CfD+fSpNabBLrYYQsKFLsbG4G5pRfbWa0qAxZsTE2K1UOJb4+vr16CsoRF/R6aSOzwoHLiAsm4gAZDLrq7oSqm1OTvIhMJ3quLhQS6gJf7q4wF34Dq80awZvIB3Kf/klXIYSsF0QpE7N3qMpkEKXdTo8CXYYGBMDVeAQNThzBk9AAnwTHa1fCpPxenT04/rKjLhusbFS52UFAxcQ9jcVlr0bWz2yalVZiBAiC3Fzg6k4Faa6uQFQPXzZpg1OA09Y9P/HEFghMxkmQNyjR4SopM2nTsFUmgpTjx5VrFUoIHrPngdtEeNLaDRSx2SmgQtIEWPtTlT35xIl5LHaTH14+/ZijOAserdrB3LwARt3d3SmybjI3l7qnMzEGMds6oAcqly5AmPBna4cPow6rITjdu9OLi/fHOdw8SIA4vunVVYUcAEppGxXErm4mJsjaXu+2f3tt+AuPBbqd+8O42k8gKcnnIaWYFmypNQ5WeFAapxOI5OSMJYmY7P9++E69RUt9u5NGaTcZGN34AAACidRr5c6J8tdXEAKuGqhJFYLNTPLeKxzVKzt3JkcoQGU6tMHGsFsKOnmhh5QHe6amUmdkxVRxldiPuADIdu301Z0E++uW/foR0VqQvjly1LHY5+HC0gBY+ObmeIc5ewsZOJP9EffvqCBOqDy84MECITlVlZS52MsW7zQlfao1fQDTANZRAQtlnfU7wkPf7QWhcThT59KHY9lDxcQE2U/ish+VPHihs06XckDffqgH2Ri0IABsBbMYH7DhlLnYyw30V64BVUyM+EVhtOvu3bRepgIR5cte7RWUS6+78mTUudj/4wLiImo0JrE2jOtrWXHtGiYEBCA1fEXGDhkCGTAcDhtaSl1PsakQHewHG26ehWqUCr0XL5cmaJQvI2LiLiPiPfx3Tup8xV1XEAkYhel3eIcVb8+ncVFtH3UKPiWIuC8tzf6QyUwVyqlzseYKaKDOBv8kpPhHHxFhrAwWbzcXai6alXSQkS1V2qq1PmKGi4g+cTaXVvH6XDt2kI37AipkyfjapqAUd26QQooIQ7534GxT9EcTsCzN29ADmuh29Kl8tOKTfLTc+c+eIB4/XpamtTxCjv+xZVH7EdpO9WMqVNH/BJbCr9OnQqhNBCSPD25YEjkwzoGmg476cf/08TwAlzF79+9wxKYCjPfvjX+MZWHDHIVRXwO5njxH1bU9ydXmFmmDJ2HkvSbIGAEVEA/uRw2Qxt4VKqU1JdbVNEU2AkjX77E1diRDixcWOy5vJj22qJF3Lwyb/AvslxScVtmeVVI9eqipfAD/ThjBi6gSbisWzdu6fFp6FecDy4pKSCnrnDlwQM4hJupVVIS+lMlPJmUhN0xjlY/eEAeFImDU1LgW6Esqp89A19xJZ1OTTXcMzQVG6al5X/32//oDrxY6yZPsLBAnWCF4ywsDBloi+csLGTeor1Yr0IFWo2eOMrRkYaRJVWxtwcv6IPX7e0B8Co0dHQEoJ+hpqMjdwD4NLQfNtL+tDThG2yMJ3/5RfxZ7my+ZOFCjT9idHRGhtT5CjouIJ/I2DRQO1T3i/ZUcDC0he+hz9ChPIbxL15jMIU/fEi76C/cfe0aDgEHiFCr4QI0oc5qtdgQF8pKqdXcZfafGbsWGxoplbJIlQq6kZXoplJRb/oNBtSqhc3hJEaqVJAESrD58ssC26U4rxl/DtV0DoLHjtU4KE7GH928mVfQfxouINn2vplgxfL68qr4AQOoLgXC4enTi/z6i0DYB26vXpEn3Kahly5hedgGoRcukJY6CPsuXlRcVk4SYy9e5B5K+YUIQBDeN71UqWRhsB1/cXUlc/hSHOvqilHoiF0aNwZPSoKNdevCLigLITKZ1Kklu1sPIQaGnj0rC8QgtBo1Kmmh4g+118WLUucqKLiAfITNWd1tVftvvsHr0AqcwsJwGiXCgTp1pM6VbwbDU4rQ6+EYJIDm/Hlwwvrw4sgRKAe/kfXRoykz5QE2bS5e5FYVBUvWE3Q77XZthVatwBMb0j13d2iOQ7Gamxu60w4oW7261DnzzYf2+NQc3UGxYYMYKz+jaBgU9PgICjFBT55IHc9UcQH5D1WrkFi1SpkybzvqnigXzpmDZ6EkRvj7F/bBb+O7YliHq3Hcnj2gEvtB6507tTbKgeKFY8eef49CQvjr11LnZPnD5uzbo6r2lSoJF+XD4XSHDvQ9+dGlLl0wEnrCqxYtYBlYYV+5XOqceSYVVkCZ58/RBbS0fvTo5DPKwPiaERFSxzI1hfYXYk7Ztcoc7hzVqRMtFsrT/WXLsC2Nh/CKFaXOletqwnwIePoUZkAgtN65k8YJAWLsjh126bLVJeceP84bDrH/xe4VkdOQ8uVhtO6gcKVTJ/KBhdSySxdIh6WwqU2bQjsG2B0CIezQIcMiw2Kx9aBBj7E4JuC9e1LHklqRLSDW7iTW/blCBWGiPkjba8kS9KHZ+K2Xl9S5cs338AKCDQbqDr3h+oEDMI8Gwq/h4XZPlF3MHfbu5ULBcpONL4nVQq2sZFf04+WNevem6bAdx/v5QQCp4XHt2lLnyzWV4SydTE+nJ7gNm06apEmUL4lLDA19PwgvilLHy29FroDYzNcHO1u2ayekiQbxj7VrYS1MRS9ra6lzfS6agn1o8e3bcBGGwrg1a+Q1dD9S/fXrH441v5kQnpIidT5WNNnU0DnXGteoEbal44Ymfn74CGJwQO/ehWU7AYqAVTT++HHZPn2aoX3fvkkLzYNvWSYnS50rvxT6AlKJiCpRsWK6Xjof88FTp8IbWAblg4IK/PqMlgDQMjoa70MojQwNTT6jGG1dY9MmHsxmpqxcOxKrhZYubWal76946euLT8Ec1o8aBddoASgqVZI636fKWsC4FGZQlUGDUmKU1+PbbN4sda68VmgLyP9pHfISD27aVFBnT2XtZf0CR8K6qChaRFGwZOFCjUapjI+PjpY6H2Of5/3CS7uLupJPtnfpQjsgkax++gkjwBIHubpKne6TTcZiMGD1asN2uUFhGDXq8RHEmKD0dKlj5bZCV0BsvbXPnX4ZMAAWw0PUhIbil+AM+4oVkzpXtn2YNktW2BGvREYaDAZ3fcnp058MLjb3Vq87d6SOx1h+sHmoH+kc1bYtLhXHiNbTphXYgmKNrSAkPl6sL25FsWvXR2vN7NRearXUsXJLgS8gWTvyuej0itahodAdALoPHCh1rmwz9mjqgD9T7e3bcbP4hg4HB6f8YRaaEJ6QIHU8xkyBnY++mSrAzQ2+FXdTtVmzIBhK4a+NGkmdK9s+NH3E0/QNWvr5JaeYFVPHbd0qdazPVWALSMVhGTerhdrbi7XlSvmP27bhNLDDho0bS50r2ybAUBp08KAYTVMF259+KmzfTBjLG0QAiBWHaTXOUV27ko0wiRLmzYOltAI2VakidbqP+rBgEWrAALCeNy9lk2JT3PKJE9/P4jIYpI6XUwWugNjW1V1Wvf36axxMm6F4VBRMh1mgsrGROtfH0BHsAi9u3RLcxW1YduLEwvINhDEpOUeR6BylVKbt1fenhIAArE8d4cn06QWmF9gi2Am1T57Ur1B0l9Xv0ePJcRRuTHz8WOpY2VVgCojtLe11Vb8ff4TjUIqWLV/+/olDoZA617+hVbCF5r14IUzEG2A5fbqNTD67xJCwMF5/wVjecTxI5JRua6sz19dCzaxZOJouwph+/Uy+k8Q89IN5d+5QutjcsKdDB42/2aCbq+LjpY71MaZ7Qz88qtqSFlQ0ZQpWRB04T5kidaqPpt4IHtB5715hpz5MZxsQkLzEvEbi8KQkqXMxVhRlvbGQwQjYt2oVPKY/INjJSepc/8bYUogWY2c45elp6nvCm1wBMT6Sviimby/WWrMGBtFu7Na7t9S5/pUvTKWox4/xBJQD5Zgx3DOHMdNjP4rIflTx4oYFWii1YOxY2IuJUHn8eFNtvUIr4T5kaLUQDiFY3s9Ps1MZob4SGSl1rv9kMgXE0ZGoTh0LC11P3QZ9vx07cAN4w5qWLaXO9W/IC1tA3YgIGcrPYtdRo3hPZsYKDtuV2ntO6Q0aQCVsgr+vXYt+9ABm1K0rda7/YuwSPADPkuuECRp/RZv4cXPmSB3LSPICYtWdyDnKxkbRW1+dlh05Yqq9c7J2NmtPPkJ7f38eBGes4MvqVLFVF1U8ac4cmAcdcMTw4SY7ZuICf1KtJUtS9ii+jd82YoTUG2FJ1srDbuLbWrW/cHCQT9V3pBF//mmyhWMd3AU8f14MEteKT1xcuHAwVnjcR8T7+O5dipeyR7zDyJFQQ/gOrNu0ydpS2dREwzcYO2yY3W59O6fYiAjjSn6p4uR7ha2w7N3Y6pFVq8qvyV7Idxw7BntoCagrV5bqBvyXDyvBcR6+wNipU5NfyZ3jfpgzp6DO02aM5ZyxW7csUPeDtsW6deALv2K/du2kzvVfHLA/TPjtt5QL8nUVevftm9+98PKtgNi1yhxe069mTdoplMbGR4+iM03GRfb2+XX+jzKHUGj+7BmsEtZhhLd3Smv5DXXmsWNSx2KMSenDbNCr+t1Od8eMwcn0Da6ZNcvUmrEaZ38qWykOZczq3t34ZJXX583zAlJxW2Z5VUj16rQbh9EXp0/DUZiAIRUq5PV5s80XMiHw8mUAQxPZrC5dUmYWj71x++FDqWOx7Hr/H9zxIIBTuo2NeEjfWtjn4CDWFK0NzaytwQe/xVnlylEDvIaHLCwgiKLAtVw56AkHQVWuHF6H2uD5f9YTjcb+8FepUuQH9qT426uBg/gyIwNr03lolpmZdfZNEAqpb97gEPSEOWlpcBg6wunUVOpKluSalgb7BRvIeP5cbCzuxdHJyeJMxRsU799/uhUFtdebN1LfPZYzdq/065yGeHjQn6IM2m7YgAOhB44pW1bqXEbUC3rDrf37NT8rtsTpO3XK6zcneVZArN2J6v5cooSsg76WLuTCBZhHV6FirVp5db6cos1YH/asW6f8Wh6b8UVAQH5VbPa/Zc3GK6uP1l+sXZu2QVNs5+ws/ET7RctatSgUrsJMZ2c8g1fxZpUqVIamwFB7e1OdjvlvsrYQfoQT8OzDh3AEAujszZvQk+ZiK7UaRQCA2FjDRPiCSqvV9s8V10qMS0jghaimIeuLsUKwgGM7dpjcGG5L6Act585N2aT8LW75uHF5dZo8KyC2fXV+qpARI/AorYBNixbl1XmyzbhDXzqOg9s//aSJUITHBS9eLHWsooMIQCazWaMvX9Pvyy+FIKiHj5s0gXVgBvMaN6bWIGKQqyvWoL1wt0YNqdOanCdwFca+fQsVQQe1rlwhDzgHby9cEHbSUPQ/f14YYahr+OrMGd5ALH9ZdSfROapkSXllnTf5bNmCkbARqrdvL3Uu4/Rf/ArHQUzTpslLFGFxiefP5/Zp8q6AHNTZqCKvXZN8frUCLtHyjAxSkQa79+6tOWjWLe7pzp2S5SnkjJMkBDfZQsVqd3fhBUyjoe7upCRrcmndGttDb2xvYSF1zkJrDNaH5NhYaE9jwPHIEYwRHkOPI0fE57Ix5r+fOKHxR4yOzsiQOmbh8342lO1w3ZPHu5YswW1QDscPGiR1KrDE32jxrl0pMYp+8W06d87tj8+DAvL+m6btHl2iqlJGhmSvFlJhBZR5/pwWoxOO7txZ469oo/Y6fTrfcxRSxkIhOy97Kr/TsSOepB+hbffuoING0LdZM6nzsb+jv0ANHd69g1gYA4qjR4VgaEM/bN1qlqIYrW27a9eduyjcufvypdQ5C4usNzAv6BfIXLBAskH3D3u4p5xVtIivULp0bu/dnusFJGvsI1an04Xn/yChseutfKjBT7jQrt3DP4p1iXW8fTu/cxQWWc3pbPS74UnfvjgNZkJ0v35wgU5jsEoldT72eWgv3IIqmZk4C8/S1gMHwE08Ri/Cw1MGKTfZ2B04wFskfx67iVp71Zc9elBXOAS269ejB1SHu2Zm+Z0Du+rv6QIcHHK7N1+evcKya6WdpQp98gQSIBCWW1nl9Q2i42hDgdeuicPkz5Spbdo8PoJCTNCTJ3l93sKDCEAQ7FppRzhHeXhQhNCSSvTvj+upMVVo1w6WgRX2lW7BEstfNAUCQaHR4El4Cs0iImQasbswfvVq/kL2aWy/1v9Yc8t33+ED0Q+td+wAHTTCAHPz/Dr/u3oKuS6gTJnUAygkDn/1Krc+N+/GQEbqvlL1WL8eo+gkxPTtm2d3JgReU/9Ll4QbinKCQ9u23JMqe8rvIrGmX6lSykf6nsI0X18AAIobPhyn0QYc8cUXUudjJubDzplQBzfBvl27xA7QFmwXLXrUVPFF3P4//5Q6XkFh46tLdYpo0UKwoLO4ds8e2Axt4FGpUnl1PjqIs8EvOVlTVzElLij3193l2Ts5qgMJYoklS4yzn3L9BO3hGP1x6tS7bQoLvcLNjQvH/2bjS2K1UCsrO5X2R1XFuXOVj3RbhcYPH+I02gBtFi/mwsH+J+M7/LU0AN55egrdyAHunjxp56PVqgIuX7bJzDzhtLRLF+O6HKnjmipje3aB8BcMcHPLms6dR7AHPYBFedfFN+8XEpbWxarWTZxIJak6zJ0x47M/sCSEQJUjRwyVFNMVrTw9Hx9BjAlKT8/r6yho7F4ROQ0pXx5W6b5Hj8BAuAhDoe/QoXAaWoJlyZJS52OFE93BcrTp6lV4I44VPKdO1VgqJ6nv7d4tddM/U1WxmXZ+rdB69cRdUFIcf/w41gU/cCxX7nM/19jLi7bKx+lc69d/tBaFxOFPn+Z2/nz4pvBhD+N6+nFO50aOFAdTANSdOzfHOwr6wiEaHRpqe0DRocTywEBeUPV3xv0OxLp6TckZgYFwna6gR1BQXj8iM/Y/fej0IKagjhSBgaa+QZJUbM7qbqvaf/ON0JMe0ZgDBz51jMT4RINN0JzqdOyY8k7hnfDmzJm8yp3vj5rW7u++rnGhShWZlWAvW+fvD2dgKPg1bw4lcRs5OzjAaJoEKx4/pmuggy+io4Vo2Ch7sGJF8hllYOzwa9fyO6/pel+Y7erq6jod7tEDDOgGzebOhTSaiw0dHaVOx9g/+h1/gZDt2w0TDfsNDkFBj48UO3Wz8d27UscyFVk9A12xoeC8YsVH90X6sGAQmsEEGHL4sCCIgfh86NCkhcUc1V6JiXmdl99VFjDW7to6Todr15bdhBVosWIFr7tgBVHWupTJ0AWWzp+vXKG4nZExcya3FPo7Y0GBXVgHizdpAhWwFEZbW1M72o/a5GShF+0jz4sXk7uZPY8LvnUrv/NxATFx1UJJrBZqZpbeVFdSYTdhAmjgGvw0blxB6/0kFZoCKXRZp8MzsA52paXRMjyLG1+8gEhaRVvT0jAAItH+9eusA2qjPW1JT6chkACpWm3Wn1eny3iteHF0gxawolgxug1mdB4RfTAQe1tYgAf4QScLC6pHrai+hYWpNdkzee/wO+iSkCDuhV/hr4EDeXZXwcAFxERVHKYbqqrWpAnJ4DQdXLMGougidnR2ljqXZIzt9meBA7yIjaXT0IJ6xcVBLRyBLnFxuFm0xnP37pE3jhY7JCWJ2xSOymVJSVKtB3KOItE5Sql83v0dGrrb2Qmr5EdkW+3tASjM4OToiFdxHV6tVo0mw2Sc7uwML2ETjXdyggw6hdudnKRacCY54xauZcBAtqtWaYcrStHboKDn36OQEP5/Cj0zCVxATMb7FjB2Afo0p4iJE6EivQVVcHBhX8BHK+E+ZGi1eANigc6fh+uwBTqcOyeuJX+qffGiLNBgpzdcvJjbK2hNlUsDEl0aKBQp/roH6afq1BEmYAN86OoqJkBZ2uLqigehKTZo0QLGUDiMqVpV6rx5bh76wbw7d/AClIVRvXrlVVNA9mm4gEjMmt5STapcWVZZdla4vHFjYR3ToDXoTScSE2EvNcWE3bupivASuxw9Sodk0+Vj//yTp2PnjHEyilBe+F047eaG7XE93m/bFoKpMXVp2za/VzrnuQ87hUIyFoe4kJCU5fKy1n1mzeJWK9LiAiIRu1aZw52jOnUib2xGaREROA08YVGZMlLn+mwf3mXTbIqFu1FRQgSMEZps386z6PKH7UoiFxdzc/pBezLdr21bYZGwCKBLF1hGQVDL07PQFJZhsB/S//xTd0XxPc7v0ePpVkS116NHUscqariA5Jv3vaZsV+qsVT5Tp+JquAPvJk2CFFBCXAFcudscTsCzN29oGQ6ioVu3wnZYIajCw7nrsWkq147EaqGlS5t11j2Q/+jlBf3hGa7z9UUHqAthTZtKne9TGRfM4RkoI/bp3j1lpmJIwndnz0qdq6goeL+4CpisHfZ66Hro4zZuNJkNZ3KqIw4D53v38DyUpcDQ0Ld28tn6S2vW5HZzNpa/7Cppz6guffkleWIgzB85Er6lCDjv7V3QZvlljaXdxu8hbdSolJEKddyrZcukzlXYcQHJI1ljG13kjXH7/v0Frf25sbuxsFS8IZSaMSN5idJW7bVzZ17vscykZdWdyDnKxka+QTdCrD56NLaGLlBx8GC4B02xRYkSUufLNgVcgoiwsJT7iqZxjUaO5J/bvMEFJJfZ1NA51xrXqJHQnTobeu3ZA2thKnpZW0ud66M+7GSHt8Wj+OvUqe8Lxvbt3MOoaDM24cTlupHyr4OCsCb0gJdDhhSUsRS6gHth/p49op/cU6Hu2ZMna+QuLiC5xG5FpnfN5I4dIQIHoeK330z+G5svTKWox4/JEQZC1UmTNP6KSvElwsNze8cyVrhUHJZxs1qovT2NVPgrQmbNgh60B77u3dvkx/JaAkDL6GidTqHAVh4ePOieO0z3H7yAsH2o/cbJrWdPXA+/weyICFNdt2FckQ39YAHcXLQo01OxSH9qxgwew2Cfw/jEjV3oqKFdWBhGgCUOcnWVOte/Me5YCqf1zrjYzU3jX3ye2uvBA6lzFVRcQD6RbQntcNWx3r1xPIyl0mvXmmzhMLbXrkKp0LN/f41GqYyPj46WOhcrbD7MMrTV6Zyc+vfHnnAYbefPN9lu0BY4li4/eADnxGswxt09pbTZ8filN29KHaugyf9N3gs4u0U6Z1XpwYNRBbNgqek9cWQ1qfPF1XAmKEhTTP46/suGDblwsLz1/tXn+5+zVauopuFPDKhdG+rDJPA5fFjqdP/F2LV6EzbApSdPWl/Vmqu21aoldayChp9AsqniNv1cVUj79hQhDoTMPXuydmgzFcvRGaxv3DCEUXGa0LPn4yPK6/FtbtyQOhYr6t5vO2DbV/+jKmT4cPiZhsPLOXPwS3CGfcWKSZ0uSz0cDbr790UbeahueKNGebUBU2HDBeQjsjZquqqbXarK/fuQAIGw3MpK6lxZPkxXVNxTNM1oGBTE7bCZKcvajqAWyqDqli2m1iSUNoIHdN67V9NaeThudseOUucxdabzDdpEia91B0uf9/Y2mcJRGc7SyfR0sAQXWtyzZ8p9ZbO4RsOGceFgBYHxyViXLL8iXGncmKJxNOi2bJE6lxH2hr3wu4eHja8u1SmiRQup85g6LiAfUwy7koUJtHowdiVdCTtE86ZNU2KU1+PbbN4sdSzGPsXTrSiovd680dgqwuISvb3RCoMpfPTorKaJEsMHJIMLPXtKncPUcQH5GBn1h58cHCQ7f004TXNPn4ZO8g100NU1uY4y9GbJmBipbwtjuSn5mmJu/FcLF4r9hJ+Fux07QiDsAzcJp5cfhlvoXKeO1PfF1HEB+QhyxtOQmP8LjmgTjqdjUVGK44pWbzu6u6eURoxf+vy51PeDsbz0yEG+SO118KDwENaKA5o3z5pum8+wD9SFG0VwQ68c4gLyMc3BDrfn3/RX8oRQWLlggaalfH68Xc+ePLbBiqKkhcrdCXWvX5f11e2jYV99ZZxlmF/nJ1ucTcLdu1LfB1PHs7A+wthNV4+6s7olSUl51QOIkkkB6mnTNGiGcTh1qtTXXXS83wnS0RGgTp3SpfV93tWmjJIlZWcxhP5QKjO7wwXtKSLYZjbb7F56esm7ABm/vnt35y4Kd+6+fCl1+qLCfhSRc1S5cgYznUa0PnAgz1e8t4djWNbPL+VXZTv1ubVrpb5+U8UFJJvsrukcVaMDAqAdJcKBXGwTnYo7oMzYsSnvFN5x5+fNk/o6Cxrj3uOvzum/Bahf37CK6lD5GjXgDS2G1tWqoa/gDUnVq5MNLaQ71aphCqyC5MqVqTv0wvFly35223LjrLgyuA2bPntGP5ETTb59GxNxOD67fZuawE7yvH2bEsWq8FViIj6HM2Kn2FiNv9mgm6vi46W+fwWNVXcSnaNKlpRX1W2kB3v24AbwhjUtW+baCT5sW2BeS75c18LJKXE4ConDMzOlvm5TxQUkh2z9tVVVxUNCMBpioN3EiTltImdcKY4nIUH8OSAgxUvZIwHXrZP6ukyVcR0OVTaUKfGySRPaQI8w9ZtvaABFYmCLFjgE6kFikyZQAerD3OLFpc6bbW4wi4KfPAE3LI3nT5+m6XAH9p86Bem0gOSnTmk0CkV8/NWr3Ib8n2VtkDVCb6cof+oU+tEDmFG37qd+nvH/pTADf4XfW7XivdezhwvIJ7Lz0TdTBbi5wWaxPWweOxYawAho9e23/1lQspoYdsL5WG/HDuEZCYars2bxbKq/Mz5JvFiuHQnQti1NERRi81690I164OGOHQtcgfhMNAUCQaHRoAU0o31RUfgt7kD47bfk8ootcQ4XLkidz1Rkbdi2Tved3iMiwriOI9sfYNwoTQkKuNazJxeOnOECkksqEVE9KltW31z3i35JpUp6c1hvcDIYih1WxLx1T0zkwfC/y+ri+hPtNwT7+uII2I3fenlBORgEL8uXlzqfqaIp2IcW374NV+gSfv/bbzJzva/+4YoVSQvNg29ZJidLnU9qxgWAxnUcmAg38IfatWEyONGfSiWpMQzu3L+P28gNfzhwwPwnxVe6c5GR/Krq03ABYfnCdqXusHNU8+ZQnebTX2PH5vibIvtHWVu5OuNAyNiyRbQXpwhrZ89+ZGbWMtYjLk7qfKxw4wLCctmH5nnPtDOcK3fqBNuxjxg7fjxOAzts2Lix1OkKvYaQDl1FEbrhWnj1++9QjCpi85CQFC9lD7XX1atSx2OFCxcQlivsXmW2dhpSowY0xGZ4NywM3kAw3HV3lzpXkWcsKAuxC6yMjKSj8mMGz9GjNf4o3Fz17JnU8VjBxgWEfRLblUQuLubmMFALGZfHjIG/UA0dxo1DD6gOd3kFr6miGAiHB6mpMBovwrjp0zUR8jVxwWFhPNuLfQouICxHbObrg50t27UTppFW3LNyJZSiEPSTsFcY+yz0EGJg6NmzomBwEQf36vUYi2MC3rsndS5WMHABYR9BYguSy21Ji09g0iT8Hl9AcHCwyW2oxT6PsXnhcxgGpwcOTJmpTIr7y3TarDPTxAWE/SP7URkh1Z9VrChelTeTnd28GRKgOY5t3lzqXCyfnMLv4NmGDXRUftzccdAgjT9idHRGhtSxmGnhb5Dsb2zf6ds5/eXuLl6Vy+Sb/vqLC0cR9TUdAss+fXCdHjOEU6ccDxI5pdvaSh2LmRZ+AmEAAGC7UtupZoyPDwCE4hfr1r2fdqtQSJ2LmYgPK7bhpmgmlmnbNuUPs9CE8IQEqWMxaXEBKeJs++r8VCEjRuAL+gUyFywoNGMbT+AqjH37FrygPlxQq2kgjqfg27dRpKtCldu3yQEWkfft2+RIz8k1LU3wlU3EG69ewQpqQ0J6OtWk8XBMqzV+HG3Hh1i1RAm8juPpRbFiwjRDhJBWpox4ROgGDjY2uIn8xe7VqpEjrMYNX3yB4/E1fF2tGjSnHYDVqxea+1oT5kPA06dCfTyCNh4eSQsVf6i9Ll6UOhaTBheQIufDQj9XXV2nwyEhmATROGLiRKlT5fgqjCuw78PPNPr4cVJgN3h78iSOgFSacepU2Qi5lyz80iW1Fwpqr/9fCPJb1nYANwzrdd80awaNxVP4+9dfQxdYBNNbt4a1YAbzGzaU+n7mWHM4Ac/evBFdhVNIXl6PAuUh6mcHDkgdi+UvLiBFjO157TinGT//jF1gOkYGBkqd56PsQAsqIugKR+HyqVMUCu3JPDJS5q1QCNO3bUtaiKj2Sk2VOuanqrgts7wqpHp1miM8pGgfHzoBnVHr44M1aC/crVFD6nwf9WEPc9ELqwhBQ4c+qqHQqk+sXCl1LJY/uIAUEbZtM7eprDw9MQY7geWOHVLn+TdZ3Yu7YmuYv3Ejdhc96P7cuUXtnbvtSr2XU9M2bdBC7IoVJ0yAkeAJN1q0kDrXv/pQ6MmSDsKprl01B826xT3duVPqWCxvcQEpIux26aqpWl6/DgGkhse1a0udJ8uHb7DUCl7hyFWr4IZhLY6YO1fjX3ye2iv/98I2VXYTdUtrHmraFGbTC8F72jSwgSCwcXOTOtd/Mraht1upWGQur1Qp+goK0Vd0OqlzsbzBBaSQy3pFMhw1sOnmTanzGNFJSADXc+eEH+CQ4BIQkHxGGRg7/No1qXMVFHYTtfaqL3v0oGY4GGotWID9KRCi7eykzmWEDYXVdNnDI3m3fEh8iX37pM7D8kbBnxXCPkI2BqB6dalTgDccBpvXr4kAiPz9NdUVtePWN2/OhePTGFeKZy6Rj9O5qlQUDzfAZ+nSrDEjiYkTxIewMBe3mmUmiQsIy1uNsTmFxMUZ+oIXDPnqK41GqYyPX7XqffM+UZQ6XkGXegCFxOGvXmlKKxvEBQ8dCqVoAnp37kz7YSPtT0uTKhcaYDp2Ll1a6vvD8hYXkEJOWKqvLvTL/8FnikEn8l67ltrKL5SY3bDh4/rKjLhusbFS34/CLuUPs1C11+7dsvWim3DJ1ZXuYDnaJME+IP0hAL578ULq+8HyFheQQu7hH8W6xDrevk1TsBq0u349z05kfHWSijugzNixGkvFnfgpfn7cQ0kaSQuLOaq9EhPFjvLXyqPNm0N3CISwQ4fyLcAF4WvqfOqU1PeB5S0uIEVFV3EA7ggOzvXP/R5eQLDBAE/hGozv3z/lncI77vy8eVJfLnvv8RHEmKD09LLNFIvweadOtAnH07GoqLw6Hx3E2eCXnKwoJev3NuzoUamvn+UtLiBFhMbSLFh9b9cuKAMB8CoXfsF/aBVC9WkHvO7WLeW+sllco/Bwqa+T/TPjinxNS/n8eDsfH+oGqTR7xYpcO8GHLxJ4VowTfQIC7iPifXz3TurrZnmLp/EWUXaLdM6q0oMHUzUaT5EzZ+JA6IFjypb92HEUjo4wKSYG7tN56uzrq/FXVo4vceWK1NfDPo1dOV0rpw5Dh9JRCkOaPz+nO0rSXrgFVTIzqRY9pQ4+Po/MzFrGDzHdhaosd3EBKeIqEVE9KltWt1UX9Q46d4YgsBcuu7jAYPyZLlpYwDUqjjeSkqiFYKBrx49r/GVb4s8ePcqzqAoX66tac9W2WrVkLbAXHJg0Cb6j7rDbwwNOQ0uwLFky6y9+6IEFFbAzNNq8WVAY4vGHuXONYy5SXwdjjDGJuTQg0aWBQmG78u0Y5yhHR5uzb4+q2leqZNyhUup8jDHGGGOMMcYYY4wxxhhjjDHGGGOMMcYYY4wxxhhjjDHGGGOMMcYYM0XcC4sVabYrM1fUGOjkhJtBLXerUYOscYr40NoaWmE06MqXB4A12CsjA9qThnyfPoUOuAD3JCUpr8ldMopdusRdZ1lRxgWEFQlZhcICLYTgQYMoDXdAnIcHTqMNOOKLL3L8gQq4RMszMmgtTMNDx48LwdCGfti6NfmMYrR1jU2bAFA4iXq91NfNWF7iAsIKJbuJb2vV/sLBAVbL0/Trpk6FrnQVH/brB7ugLITIZHl1XrqJHlDl5k1sShoaOWVKSowiJr7Nli3vuxcTSX1fGMtNXEBYoWIzXx/sbNmuHbqJVcRLkZHYHnpjewsLqfLQBdwL8/fsKf6NvHPm0D597txF4c7dly+lvk+M5QYuIKxQsP1Rd8qpwfjx+JRqY/sZM+AylIDtgunsuOmFrrRHrRbQsFu48v33vH8GKwy4gLACrWJpXaxq3cSJVJKqw9wZM6TO8zH0K84Hl5QU4YCum861cePkJeY1EocnJUmdi7FPYTrf0BjLAdt3+nZOf7m7Uy+yAuW0aVLnyS7sT4EQbWdHdnK1Yn5k5Ptxkbwbk2EsL/ETCCtQbFeSWGOgpSU01q0Txt+8+dljHL6QCYGXL5MjnqOn27fjSZyG9y9fphZiJM1PTcUHuI9OFytGg2gL/lypEuzHN9j9u+9wPS0gz27d4B40xRYlSnzy+VNxB5QZOzblncI77vy8eVLfX8ZyggsIK1DsfLQ9VQFz5sAJWA8nxo7N6fE0BQJBodHgZgKcNGhQyh9moWqv3btz+jkVWpNYe6a1tWyqvrahx5w56E1XoeMPP+Q4zyrYQvNevCg+TNFLO7xyZR5kZwUJv8JiBULWk8c98KdpQ4fm9Hg6jjYUeO2aLF5vpT/eqNGnFg6jJ8dRuDHx8WPNNwp1XDVfXziA1aDd4MFgB1pQZX+6Lg6EHjimbNm3rfVnlBaDB0t1fxn7FFxAWIGAs3TnZAM6dcrxKyM3mEXBT54IS3Xn9ekeHkkLzYNvWSYn53a+lHqKB3ELli+nxrACRi5cmOMPcIUwmPPjj3l7FxnLXVxAWIFA63EHVfzuuxwfFwxd8dCECfk120kZpvgp4+uJE2EyTIC4R4+ye5xxRXyFZe/GVo+sWjWvczKWG7iAsAIBj5AZPG/RIrt/3zi2YNdDUcv8ekREfuXM6o11DSdQxPLlOT1eJhMCZJ1bt86vvIx9Di4gzKS5NCDRpYFCAYdgAk6pUCG7x+EEFMHs5MnoKyhEX9Hp8js3zoAAbHXoUI4PvAKt0bJSpfzOy9in4ALCTNqTHm+d3tS3soIUUEIcZnvWIJWhdDx6545UuXGGfDOeu3Urx8f1hXi4lP1CyZiUuIAwk0aPhKOytubmOT0Op8F2XCxdm/XSXwEBvHmT4wNXYx8oU7KkVLkZywkuIMykyRaYOSi6P3uW4wNv4h8029JSqtyvzr2dqWttZZXjAydQO2j35IlUuRnLCS4gzKTdR8Rr+OIFPIGrMPbt22wfOBXkENiwoVS5DU4yK/n2Ro1yehxloAXtyf7sLcakxAWEFQh0A9uS4ebNbB9gT6nQuX59+1HvHjhHVauW33nRVvidmnftmuMDL4gaPJyQkN95GfsUXEBYgYB2VAOu7NuX7QM+DLqLabIg+ir/mi0adz6EGFoDGd7e2T2O9sItqJKZqbVRDhQvHDuWX3kZ+xxcQFgBge0A9u7N8WGHaQO08fGxXantVDPGxyev0tmPIrIfVbw4rhMGyf6KjIRlYIV95fJsX503bAb488/n36OQEP76dV7lZCw3cQFhBUJKafnk+KXnzxu75+b0eBwCk4Qrv/5qV1dbx+lw9p8MPsbGl8RqoVZWBqVuQ6mK+/fDfdLCmwYNcvxBFekl/hAWlse3kbFcxd14WYFi56Nvpgpwc4MT4h9w4siRT/6gEehFQyMjhUeGUMFq6tTs7hBYiYgqUbFiuhh9JfOffH3pPHWGo8HBOA3mg87WNqcx6CQkgOu5c5rqyjpx65s2lfj2MpYjXEBYgWR7XNtGNX7PHuwNe+F3D4/P/Txjt154AjbY4q+/0J++ghZPntAFGAKDSpTACFhBpb/4AjaBD/T8+uvP3gdkMDylCL0e3uLvlNqiRcpMxZCE786elfq+MpYTXEBYgeToSFSnjoWFbqW+q+7oxYv4I23Glvk/2+pTkTmOBt2oUZpERVhc4qJFUudh7FPwGAgrkB48QLx+PS1NXEC34JqnJzSHE/DsE1Z+57cV2Im2bdzIhYMVBlxAWIH2+IjyenybGzcwGPYa7jZrBvPQD+ZJ1wPrvxg3mGoJ/aDl3LkpneQH4mvlfOdCxkwRv8JihYrdKyKnIeXLwzldP+i3YQP4wq/Yr127fA9iDqHQ/NkzMZYaUn1//0dmZi3jh+zYIfX9YSw3cQFhhVrWrK0q4kFoOHs2rAUzmJ8HLU4qw1k6mZ4OlWElTgkLK3ZOEZl5cPZs3uOcFWZcQFgRQQSAWHGYfpiqWuPG4gU6Scs8PPABJmDb9u3BjP6g4zVrgg4aYcA/dP81zpqai6Gg12jgKlzETidOQDjdAvt9+xQzFA+VVw4dyurdxRhjrGix6k6ic1TJksatZa3dSaz7c4UKxgIkdT7GGGOMMcYYY4wxxhhjjDHGGGOMMcYYY4wxxhhjjDHGGGOMMcYYY4wxxhhjjDHGGGOMMcYYY4wxxhhjjDHGGGOMMcYYY4wxxhhjjDHGGGOMMcYYY4wxxhhjjDHGGGOMMcYYY4wxxhhjjDHGGGOMMcYYY4wxxhhjjDHGGGOMMfa//T/QbSpcgHod2AAAACV0RVh0ZGF0ZTpjcmVhdGUAMjAyMi0wNi0wNlQxMDoxMzozMiswODowMIeTdhUAAAAldEVYdGRhdGU6bW9kaWZ5ADIwMjItMDYtMDZUMTA6MTM6MzIrMDg6MDD2zs6pAAAARnRFWHRzdmc6YmFzZS11cmkAZmlsZTovLy9ob21lL2FkbWluL2ljb24tZm9udC90bXAvaWNvbl93YTNpczFkcjczL1dpRmkuc3ZnZFr4OQAAAABJRU5ErkJggg==;" vertex="1" parent="1">
          <mxGeometry x="635" y="199" width="50" height="50" as="geometry" />
        </mxCell>
      </root>
    </mxGraphModel>
  </diagram>
</mxfile>
